<?xml version="1.0" encoding="UTF-8" standalone="no"?>
<svg
   xmlns:dc="http://purl.org/dc/elements/1.1/"
   xmlns:cc="http://creativecommons.org/ns#"
   xmlns:rdf="http://www.w3.org/1999/02/22-rdf-syntax-ns#"
   xmlns:svg="http://www.w3.org/2000/svg"
   xmlns="http://www.w3.org/2000/svg"
   xmlns:sodipodi="http://sodipodi.sourceforge.net/DTD/sodipodi-0.dtd"
   xmlns:inkscape="http://www.inkscape.org/namespaces/inkscape"
   version="1.1"
   id="Layer_1"
   x="0px"
   y="0px"
   viewBox="0 0 30.000001 52.325218"
   xml:space="preserve"
   sodipodi:docname="candle-solid.svg"
   width="30"
   height="52.325218"
   inkscape:version="1.0.2 (e86c870879, 2021-01-15, custom)"><metadata
     id="metadata1901"><rdf:RDF><cc:Work
         rdf:about=""><dc:format>image/svg+xml</dc:format><dc:type
           rdf:resource="http://purl.org/dc/dcmitype/StillImage" /><dc:title></dc:title></cc:Work></rdf:RDF></metadata><defs
     id="defs1899" /><sodipodi:namedview
     pagecolor="#ffffff"
     bordercolor="#666666"
     borderopacity="1"
     objecttolerance="10"
     gridtolerance="10"
     guidetolerance="10"
     inkscape:pageopacity="0"
     inkscape:pageshadow="2"
     inkscape:window-width="1920"
     inkscape:window-height="1137"
     id="namedview1897"
     showgrid="false"
     showguides="false"
     inkscape:zoom="1"
     inkscape:cx="1.8237081"
     inkscape:cy="1.5209176"
     inkscape:window-x="-8"
     inkscape:window-y="-8"
     inkscape:window-maximized="1"
     inkscape:current-layer="Layer_1" /><style
     type="text/css"
     id="style1860"><![CDATA[
	.st0{fill-rule:evenodd;clip-rule:evenodd;fill:#4AE351;}
	.st1{fill-rule:evenodd;clip-rule:evenodd;fill:#FB4049;}
	.st2{fill:#393939;}
]]></style><path
     class="st2"
     d="m 24.879974,10.350444 c 0,0.678134 -0.551954,1.230062 -1.230069,1.230062 -0.678114,0 -1.230069,-0.551928 -1.230069,-1.230062 V 1.2300622 C 22.419836,0.55196064 22.971791,0 23.649905,0 c 0.678115,0 1.230069,0.55196064 1.230069,1.2300622 z"
     id="path1878"
     style="fill:#4ae351;fill-opacity:1;stroke-width:0.525669" /><path
     class="st2"
     d="m 24.879974,47.525859 c 0,0.678102 -0.551954,1.230063 -1.230069,1.230063 -0.678114,0 -1.230069,-0.551961 -1.230069,-1.230063 v -9.115128 c 0,-0.678102 0.551955,-1.230063 1.230069,-1.230063 0.678115,0 1.230069,0.551961 1.230069,1.230063 z"
     id="path1880"
     style="fill:#4ae351;fill-opacity:1;stroke-width:0.525669" /><path
     class="st2"
     d="m 19.502365,8.647263 h 8.289822 c 0.594007,0 1.135449,0.2471616 1.534957,0.6465912 C 29.742424,9.7091376 30,10.287357 30,10.923444 v 26.372862 c 0,0.636054 -0.257566,1.214307 -0.672856,1.629591 -0.399508,0.399495 -0.94095,0.646557 -1.534957,0.646557 h -8.289822 c -0.588749,0 -1.135448,-0.247161 -1.534956,-0.646557 -0.41528,-0.415284 -0.672857,-0.988284 -0.672857,-1.629591 V 10.923444 c 0,-0.636087 0.257567,-1.2143064 0.672857,-1.6295898 0.399508,-0.3994956 0.946207,-0.6465912 1.534956,-0.6465912 z m 7.227967,3.406361 h -6.160857 v 24.107248 h 6.160857 z"
     id="path1882"
     style="fill:#4ae351;fill-opacity:1;stroke-width:0.525669" /><path
     class="st1"
     d="m 19.502365,10.350444 h 8.289822 c 0.315402,0 0.572981,0.257665 0.572981,0.573 v 26.372862 c 0,0.315435 -0.257566,0.572967 -0.572981,0.572967 h -8.289822 c -0.315401,0 -0.572981,-0.257664 -0.572981,-0.572967 V 10.923444 c 0,-0.315434 0.257567,-0.573 0.572981,-0.573 z"
     id="path1884"
     style="fill:#4ae351;fill-opacity:1;stroke-width:0.525669" /><path
     class="st2"
     d="m 7.5854214,51.095157 c 0,0.678102 -0.5519538,1.230063 -1.2300684,1.230063 -0.6781146,0 -1.2300687,-0.551961 -1.2300687,-1.230063 V 40.424061 c 0,-0.678135 0.5519541,-1.230096 1.2300687,-1.230096 0.6781146,0 1.2300684,0.551961 1.2300684,1.230096 z"
     id="path1886"
     style="fill:#ff0000;stroke-width:0.525669" /><path
     class="st2"
     d="m 7.5854214,14.834402 c 0,0.678134 -0.5519538,1.230095 -1.2300684,1.230095 -0.6781146,0 -1.2300687,-0.551961 -1.2300687,-1.230095 V 4.1685567 c 0,-0.6781014 0.5519541,-1.2300621 1.2300687,-1.2300621 0.6781146,0 1.2300684,0.5519607 1.2300684,1.2300621 z"
     id="path1888"
     style="fill:#ff0000;stroke-width:0.525669" /><path
     class="st2"
     d="m 2.207813,13.441403 h 8.289821 c 0.594008,0 1.135449,0.247162 1.534957,0.646559 0.41528,0.415284 0.67286,0.993535 0.67286,1.62959 v 24.138759 c 0,0.636054 -0.257567,1.214307 -0.67286,1.629591 -0.399508,0.399495 -0.940949,0.646557 -1.534957,0.646557 H 2.207813 c -0.5940076,0 -1.135445,-0.247161 -1.53495668,-0.646557 C 0.25757617,41.070618 0,40.492365 0,39.856311 V 15.717552 C 0,15.081497 0.25756632,14.503245 0.67285632,14.087962 1.072368,13.688467 1.6138055,13.441403 2.207813,13.441403 Z M 9.43578,16.847732 H 3.2696676 V 38.72088 h 6.160857 V 16.847732 Z"
     id="path1890"
     style="fill:#ff2a2a;fill-opacity:1;stroke-width:0.525669" /><path
     class="st0"
     d="m 2.207813,15.144551 h 8.289821 c 0.315402,0 0.572981,0.257665 0.572981,0.573001 v 24.138759 c 0,0.315435 -0.257566,0.573 -0.572981,0.573 H 2.207813 c -0.3154014,0 -0.5729775,-0.257664 -0.5729775,-0.573 V 15.717552 c 0,-0.315434 0.2575663,-0.573001 0.5729775,-0.573001 z"
     id="path1892"
     style="fill:#ff2a2a;stroke-width:0.525669" /></svg>
